# xmcd
#
# Track frame offsets: 
#        150
#        28434
#        59321
#        86663
#        120674
#        152319
#        182272
#        213587
#        249386
#        264344
#        314290
#
# Disc length: 4731 seconds
#
# Revision: 0
# Processed by: cddbd v1.5.2PL0 Copyright (c) Steve Scherf et al.
# Submitted via: ExactAudioCopy v0.99pb3
#
DISCID=8c12790b
DTITLE=Ray Bailey - Resurrection
DYEAR=2010
DGENRE=Blues
TTITLE0=Miss Mean
TTITLE1=Blue Shadows
TTITLE2=Did You
TTITLE3=I Think About You Every Day
TTITLE4=Satan's Horn
TTITLE5=Black Night
TTITLE6=Why I Sing The Blues
TTITLE7=I'll Take Care Of You
TTITLE8=Caledonia
TTITLE9=Sweet Little Angel
TTITLE10=December Song
EXTD=
EXTT0=
EXTT1=
EXTT2=
EXTT3=
EXTT4=
EXTT5=
EXTT6=
EXTT7=
EXTT8=
EXTT9=
EXTT10=
PLAYORDER=
